<svg width="97" height="81" viewBox="0 0 97 81" fill="none" xmlns="http://www.w3.org/2000/svg">
<path d="M33.3984 14.2852C33.1641 14.793 33.0273 15.1445 32.9883 15.3398C32.9883 15.5352 32.9492 15.7305 32.8711 15.9258C32.793 16.1211 32.7344 16.2578 32.6953 16.3359C32.6953 16.4141 32.6562 16.5313 32.5781 16.6875C32.4609 16.8828 32.3438 16.9805 32.2266 16.9805C32.1094 16.9805 31.9531 17.0781 31.7578 17.2734C31.6797 17.3906 31.582 17.5078 31.4648 17.625C31.3477 17.7422 31.25 17.8398 31.1719 17.918C31.0547 18.1133 30.9766 18.2891 30.9375 18.4453C30.8984 18.6016 30.7617 18.7187 30.5273 18.7969C30.4102 18.8359 30.2734 18.8555 30.1172 18.8555C30 18.8164 29.9023 18.8359 29.8242 18.9141C29.3945 19.0703 29.043 19.168 28.7695 19.207C28.4961 19.2461 28.2031 19.2852 27.8906 19.3242C27.4219 19.5195 27.1094 19.6172 26.9531 19.6172C26.7969 19.6172 26.6406 19.6367 26.4844 19.6758C26.3281 19.7148 26.1523 19.7734 25.957 19.8516C25.8008 19.8906 25.6055 19.9492 25.3711 20.0273C25.1758 20.6914 24.9023 21.2578 24.5508 21.7266C24.1992 22.1953 23.9062 22.7617 23.6719 23.4258C22.9688 24.5586 22.3438 25.6133 21.7969 26.5898C21.2891 27.5664 20.8203 28.5039 20.3906 29.4023C20.1953 29.5977 20.0195 29.832 19.8633 30.1055C19.7461 30.3789 19.6094 30.6719 19.4531 30.9844C19.2578 31.375 19.1406 31.5898 19.1016 31.6289C19.0625 31.668 19.0234 31.7266 18.9844 31.8047C18.9062 31.9609 18.8281 32.1367 18.75 32.332C18.6719 32.4883 18.5938 32.6641 18.5156 32.8594C18.2812 33.1719 18.1055 33.4453 17.9883 33.6797C17.9102 33.875 17.832 34.0703 17.7539 34.2656C17.6367 34.4609 17.5195 34.6562 17.4023 34.8516C17.2852 35.0469 17.168 35.2617 17.0508 35.4961C16.6602 36.4336 16.3086 37.2539 15.9961 37.957C15.7227 38.6211 15.4883 39.3438 15.293 40.125C15.2148 40.3984 15.1172 40.7109 15 41.0625C14.9219 41.4141 14.8242 41.6875 14.707 41.8828C13.9648 43.7969 13.2031 45.75 12.4219 47.7422C11.6406 49.7344 10.8984 51.7461 10.1953 53.7773C10.8203 53.7773 11.3281 53.6797 11.7188 53.4844C12.1094 53.25 12.6367 53.1328 13.3008 53.1328C13.7305 53.7188 13.7695 54.3047 13.418 54.8906C13.1055 55.2812 12.9297 55.5742 12.8906 55.7695C12.8516 55.9648 12.793 56.1406 12.7148 56.2969C12.4805 56.5703 12.3242 56.7656 12.2461 56.8828C12.207 57 12.1289 57.1172 12.0117 57.2344C11.6602 57.5469 11.0547 57.7617 10.1953 57.8789C9.76562 57.957 9.39453 58.0547 9.08203 58.1719C8.80859 58.3281 8.49609 58.4453 8.14453 58.5234C7.91016 58.5625 7.69531 58.6016 7.5 58.6406C7.30469 58.6797 7.12891 58.7188 6.97266 58.7578C6.81641 58.7578 6.66016 58.7383 6.50391 58.6992C6.38672 58.6992 6.26953 58.7383 6.15234 58.8164C5.48828 58.8164 4.92188 58.8555 4.45312 58.9336C4.02344 59.0117 3.59375 59.1094 3.16406 59.2266C2.85156 59.3047 2.55859 59.4023 2.28516 59.5195C1.97266 59.6367 1.64062 59.6953 1.28906 59.6953C1.17188 59.6953 1.05469 59.6562 0.9375 59.5781C0.820312 59.5391 0.683594 59.5195 0.527344 59.5195C0.410156 59.4023 0.292969 59.2461 0.175781 59.0508C0.0585938 58.8945 0 58.7188 0 58.5234C0 58.3281 0.0390625 58.1328 0.117188 57.9375C0.15625 57.7812 0.15625 57.6055 0.117188 57.4102C0.117188 56.9414 0.292969 56.5898 0.644531 56.3555C0.957031 56.082 1.21094 55.7891 1.40625 55.4766C1.99219 55.3984 2.51953 55.2617 2.98828 55.0664C3.41797 54.8711 3.94531 54.7344 4.57031 54.6562C5.11719 53.0547 5.72266 51.4141 6.38672 49.7344C7.05078 48.0547 7.69531 46.4141 8.32031 44.8125C8.4375 44.5 8.55469 44.207 8.67188 43.9336C8.82812 43.6211 8.96484 43.3086 9.08203 42.9961C9.27734 42.4883 9.47266 42 9.66797 41.5312C9.86328 41.0234 10.0781 40.5156 10.3125 40.0078C10.5469 39.7344 10.7227 39.4023 10.8398 39.0117C10.918 38.8164 10.957 38.6602 10.957 38.543C10.9961 38.3867 11.0547 38.2109 11.1328 38.0156C11.2891 37.7031 11.4648 37.3906 11.6602 37.0781C11.8555 36.7656 12.0508 36.4531 12.2461 36.1406C12.5195 35.75 12.793 35.3789 13.0664 35.0273C13.3789 34.6367 13.6719 34.2461 13.9453 33.8555C14.2188 33.0742 14.5117 32.332 14.8242 31.6289C15.1758 30.8867 15.5078 30.1445 15.8203 29.4023C15.8984 28.8945 16.0547 28.3477 16.2891 27.7617C16.5625 27.1367 16.7969 26.6094 16.9922 26.1797C17.2266 25.75 17.4219 25.3008 17.5781 24.832C17.7344 24.3242 17.9492 23.8555 18.2227 23.4258C18.3008 23.1523 18.3984 22.918 18.5156 22.7227C18.6328 22.4883 18.7305 22.2344 18.8086 21.9609C18.9648 21.7266 19.082 21.4727 19.1602 21.1992C19.2773 20.8867 19.3945 20.5742 19.5117 20.2617C19.3555 20.3398 19.1992 20.3984 19.043 20.4375C18.9258 20.4375 18.7891 20.457 18.6328 20.4961C18.5156 20.5352 18.3789 20.5937 18.2227 20.6719C18.0664 20.75 17.8906 20.8086 17.6953 20.8477C17.0703 20.9258 16.5234 20.9258 16.0547 20.8477C15.5469 20.7695 15.2148 20.418 15.0586 19.793C15.0195 19.4805 15.0781 19.3242 15.2344 19.3242C15.4297 19.2852 15.5664 19.1289 15.6445 18.8555C15.6055 17.957 15.7227 17.293 15.9961 16.8633C16.2695 16.3945 16.6211 16.1211 17.0508 16.043C17.2461 15.9648 17.4219 15.9258 17.5781 15.9258C17.7344 15.9258 17.8906 15.8477 18.0469 15.6914C18.4375 15.5742 18.8281 15.5156 19.2188 15.5156C19.6484 15.4766 20.0781 15.418 20.5078 15.3398C20.9375 15.2617 21.3477 15.2031 21.7383 15.1641C22.1289 15.0859 22.5 15.0469 22.8516 15.0469C23.2812 14.9297 23.6719 14.832 24.0234 14.7539C24.375 14.6367 24.8047 14.5977 25.3125 14.6367C25.5859 14.6367 25.8398 14.6758 26.0742 14.7539C26.3086 14.793 26.5625 14.8125 26.8359 14.8125C27.1094 14.8125 27.3633 14.832 27.5977 14.8711C27.8711 14.9102 28.1641 14.8906 28.4766 14.8125C28.7109 14.7734 28.9258 14.6953 29.1211 14.5781C29.3555 14.4609 29.5898 14.4414 29.8242 14.5195C30.2148 14.4414 30.6055 14.3633 30.9961 14.2852C31.4258 14.207 31.8555 14.168 32.2852 14.168C32.7148 14.207 32.9297 14.207 32.9297 14.168C32.9297 14.0898 32.9883 14.0703 33.1055 14.1094L33.3984 14.2852ZM27.0117 48.3867C27.0898 48.543 27.0508 48.7578 26.8945 49.0312C26.7773 49.3047 26.6797 49.5391 26.6016 49.7344C26.6406 49.8906 26.6797 50.0273 26.7188 50.1445C26.7578 50.2227 26.7383 50.3398 26.6602 50.4961C26.9336 50.6914 27.1094 50.9258 27.1875 51.1992C27.2656 51.4336 27.4023 51.6875 27.5977 51.9609C27.793 52.1953 27.9883 52.3906 28.1836 52.5469C28.418 52.7031 28.6328 52.8789 28.8281 53.0742C29.0234 52.957 29.1797 52.8984 29.2969 52.8984C29.4141 52.8984 29.5703 52.8594 29.7656 52.7812C30.1172 52.3125 30.3906 51.7656 30.5859 51.1406C30.625 50.9844 30.6641 50.8086 30.7031 50.6133C30.7422 50.418 30.7617 50.2422 30.7617 50.0859C30.7227 49.5391 30.5664 49.0117 30.293 48.5039C30.0195 47.9961 29.8047 47.4688 29.6484 46.9219C29.4922 46.6094 29.4336 46.2578 29.4727 45.8672C29.5508 45.4766 29.5508 45.125 29.4727 44.8125C29.4336 44.6172 29.375 44.4609 29.2969 44.3438C29.2188 44.2266 29.1406 44.0898 29.0625 43.9336C28.9844 43.6211 28.9453 43.2695 28.9453 42.8789C28.9844 42.4883 28.9062 42.1562 28.7109 41.8828C28.5547 42.0391 28.3008 42.332 27.9492 42.7617C27.5977 43.1914 27.2266 43.6602 26.8359 44.168C26.4453 44.6758 26.0742 45.1445 25.7227 45.5742C25.4102 46.0039 25.1758 46.2969 25.0195 46.4531C24.8242 46.7266 24.6094 46.9805 24.375 47.2148C24.1406 47.4102 23.9258 47.6445 23.7305 47.918C23.5742 48.1133 23.3008 48.4453 22.9102 48.9141C22.5586 49.3438 22.1875 49.8125 21.7969 50.3203C21.4062 50.8281 21.0547 51.3164 20.7422 51.7852C20.3906 52.2148 20.1562 52.5078 20.0391 52.6641C19.9609 52.7812 19.7656 53.0742 19.4531 53.543C19.1016 54.0117 18.7305 54.5195 18.3398 55.0664C17.9102 55.6133 17.5391 56.1211 17.2266 56.5898C16.875 57.0586 16.6602 57.3711 16.582 57.5273C16.3477 57.918 16.0547 58.25 15.7031 58.5234C15.3125 58.8359 14.8633 58.9922 14.3555 58.9922C14.3164 58.9531 14.2773 58.8359 14.2383 58.6406C14.1992 58.4844 14.1797 58.3086 14.1797 58.1133C14.1406 57.918 14.1016 57.7227 14.0625 57.5273C13.9844 57.3711 13.9258 57.2539 13.8867 57.1758C14.0039 56.9414 14.1016 56.707 14.1797 56.4727C14.2188 56.2383 14.375 56.0234 14.6484 55.8281C14.7266 55.5547 14.9609 55.125 15.3516 54.5391C15.7422 53.9141 16.1719 53.2695 16.6406 52.6055C17.1094 51.9414 17.5586 51.3164 17.9883 50.7305C18.3789 50.1445 18.6523 49.7344 18.8086 49.5C18.9648 49.3438 19.2188 49.0508 19.5703 48.6211C19.9219 48.1914 20.2734 47.7422 20.625 47.2734C20.9766 46.7656 21.3086 46.2969 21.6211 45.8672C21.9727 45.4375 22.2266 45.125 22.3828 44.9297C22.5 44.5781 22.7539 44.1094 23.1445 43.5234C23.5352 42.8984 23.9648 42.2734 24.4336 41.6484C24.9023 40.9844 25.3516 40.3594 25.7812 39.7734C26.25 39.1875 26.6016 38.7188 26.8359 38.3672C27.0312 38.0547 27.1875 37.7812 27.3047 37.5469C27.4609 37.3125 27.6172 37.0586 27.7734 36.7852C27.8516 36.707 27.9297 36.6289 28.0078 36.5508C28.0859 36.4336 28.1445 36.3359 28.1836 36.2578C28.2617 35.9453 28.2227 35.7305 28.0664 35.6133C27.9102 35.457 27.8516 35.2422 27.8906 34.9688C28.2031 34.3438 28.5352 33.9336 28.8867 33.7383C29.2773 33.5039 29.6289 33.1719 29.9414 32.7422C30.1367 32.5859 30.3125 32.4688 30.4688 32.3906C30.6641 32.3125 30.8594 32.1758 31.0547 31.9805C31.2109 31.8242 31.4062 31.7461 31.6406 31.7461C31.875 31.707 32.0898 31.7266 32.2852 31.8047C32.5195 31.8438 32.7148 31.9219 32.8711 32.0391C33.0664 32.1172 33.1836 32.1953 33.2227 32.2734C33.2617 32.3906 33.2617 32.5469 33.2227 32.7422C33.1836 32.9375 33.1445 33.1328 33.1055 33.3281C33.0273 33.6797 32.9492 34.0117 32.8711 34.3242C32.793 34.5977 32.7148 34.9102 32.6367 35.2617C32.5586 35.6914 32.4805 36.1016 32.4023 36.4922C32.3633 36.8828 32.5 37.2539 32.8125 37.6055C32.7734 37.8008 32.7734 38.0352 32.8125 38.3086C32.8906 38.582 32.9688 38.8359 33.0469 39.0703C33.125 40.3203 33.3398 41.5703 33.6914 42.8203C34.082 44.0312 34.4922 45.1445 34.9219 46.1602C34.9219 46.3555 34.9414 46.5508 34.9805 46.7461C35.0586 46.9414 35.1367 47.1367 35.2148 47.332C35.332 48.582 35.2148 49.832 34.8633 51.082C34.5117 52.293 34.1797 53.4844 33.8672 54.6562C33.6328 55.0469 33.4375 55.4961 33.2812 56.0039C33.2031 56.2383 33.125 56.4336 33.0469 56.5898C32.9688 56.7461 32.8516 56.9219 32.6953 57.1172C32.5 57.4297 32.3242 57.7812 32.168 58.1719C32.0117 58.5625 31.6992 58.875 31.2305 59.1094C30.957 59.1875 30.6836 59.1875 30.4102 59.1094C30.1758 59.0312 29.9414 59.0312 29.707 59.1094C29.5117 59.1484 29.3359 59.1875 29.1797 59.2266C29.0234 59.3047 28.8672 59.3438 28.7109 59.3438C28.2031 59.4219 27.7734 59.3633 27.4219 59.168C27.1094 59.0117 26.7188 58.8945 26.25 58.8164C26.25 58.6992 26.1914 58.6016 26.0742 58.5234C25.957 58.4844 25.8594 58.4258 25.7812 58.3477C25.625 57.7227 25.4688 57.2734 25.3125 57C25.1562 56.7266 25.0391 56.4336 24.9609 56.1211C24.8438 55.6914 24.7852 55.2812 24.7852 54.8906C24.7852 54.4609 24.6875 54.0312 24.4922 53.6016C24.3359 53.2891 24.2578 53.0742 24.2578 52.957C24.2969 52.8398 24.3164 52.7227 24.3164 52.6055C24.3164 52.0977 24.2773 51.5508 24.1992 50.9648C24.1602 50.3398 24.4141 49.832 24.9609 49.4414C25.1562 49.2852 25.293 49.0898 25.3711 48.8555C25.4883 48.582 25.6641 48.3477 25.8984 48.1523C25.9766 48.0742 26.0938 48.0352 26.25 48.0352C26.4453 48.0352 26.582 48.0547 26.6602 48.0938L27.0117 48.3867ZM41.8945 52.5469C42.793 51.7656 43.6133 50.9258 44.3555 50.0273C45.1367 49.0898 45.9766 48.1523 46.875 47.2148C47.0703 47.0195 47.2656 46.7852 47.4609 46.5117C47.6562 46.2383 47.8516 45.9453 48.0469 45.6328C48.2031 45.3984 48.3984 45.1836 48.6328 44.9883C48.8672 44.7539 49.0625 44.5391 49.2188 44.3438C49.3359 44.1484 49.4727 43.9922 49.6289 43.875C49.8242 43.7578 50.0195 43.6211 50.2148 43.4648C50.4102 43.2695 50.5859 43.1133 50.7422 42.9961C50.8984 42.8398 51.0742 42.6836 51.2695 42.5273C51.6211 42.2539 51.9531 41.9805 52.2656 41.707C52.5781 41.3945 52.9492 41.1406 53.3789 40.9453C53.6133 40.9062 53.7891 40.8281 53.9062 40.7109C54.0234 40.5547 54.1602 40.3984 54.3164 40.2422C54.5117 40.2812 54.6875 40.2617 54.8438 40.1836C55 40.1055 55.1758 40.0273 55.3711 39.9492C55.918 40.0664 56.3477 40.2812 56.6602 40.5938C57.0117 40.9062 57.3438 41.2188 57.6562 41.5312C57.9297 41.6484 58.1445 41.7656 58.3008 41.8828C58.457 41.9609 58.6133 42.0586 58.7695 42.1758C58.9258 42.4883 59.0625 42.7812 59.1797 43.0547C59.2969 43.3281 59.3555 43.6406 59.3555 43.9922C59.3555 44.2266 59.3359 44.4609 59.2969 44.6953C59.2578 44.9297 59.2188 45.1641 59.1797 45.3984C59.0234 45.8672 58.9648 46.1211 59.0039 46.1602C59.043 46.1992 59.0625 46.2578 59.0625 46.3359C59.1016 46.6484 58.9844 46.9805 58.7109 47.332C58.4766 47.6445 58.418 47.9766 58.5352 48.3281C58.5742 48.4453 58.5156 48.7383 58.3594 49.207C58.2422 49.6758 58.2031 49.9688 58.2422 50.0859C58.3203 50.3203 58.3594 50.6328 58.3594 51.0234C58.3594 51.375 58.457 51.6289 58.6523 51.7852C59.043 51.9414 59.3164 52.0195 59.4727 52.0195C59.6289 52.0195 59.7656 52.0195 59.8828 52.0195C60.3516 51.7852 60.9375 51.3945 61.6406 50.8477C62.3438 50.2617 62.8711 49.7734 63.2227 49.3828C63.6133 49.0703 63.9648 48.7773 64.2773 48.5039C64.5898 48.1914 65.0195 47.8984 65.5664 47.625C66.0352 47.3125 66.3477 47.0781 66.5039 46.9219C66.6602 46.7266 66.9141 46.4336 67.2656 46.043C67.3828 45.9258 67.5195 45.8086 67.6758 45.6914C67.8711 45.5742 68.0469 45.4375 68.2031 45.2812C68.3203 45.1641 68.4766 45.0469 68.6719 44.9297C68.8672 44.7734 69.0234 44.6758 69.1406 44.6367C69.2969 44.6367 69.5117 44.6367 69.7852 44.6367C70.0977 44.6367 70.293 44.7148 70.3711 44.8711C70.4492 45.1836 70.4492 45.457 70.3711 45.6914C70.293 45.9258 70.1953 46.1406 70.0781 46.3359C69.9219 46.5703 69.7461 46.7852 69.5508 46.9805C69.3945 47.2539 69.2188 47.5078 69.0234 47.7422C68.8281 47.9375 68.6133 48.1719 68.3789 48.4453C68.1445 48.6797 67.8711 48.875 67.5586 49.0312C67.3633 49.2656 67.168 49.4805 66.9727 49.6758C66.8164 49.832 66.6406 50.0078 66.4453 50.2031C66.25 50.3984 66.0742 50.6133 65.918 50.8477C65.7617 51.082 65.5859 51.2969 65.3906 51.4922C64.9609 51.8438 64.5312 52.1953 64.1016 52.5469C63.7109 52.8594 63.3398 53.2305 62.9883 53.6602C62.793 53.7383 62.6367 53.8359 62.5195 53.9531C62.4023 54.0312 62.2656 54.1094 62.1094 54.1875C61.7188 54.3047 61.3477 54.5 60.9961 54.7734C60.6445 55.0469 60.2734 55.3398 59.8828 55.6523C59.5312 55.9258 59.1602 56.1797 58.7695 56.4141C58.3789 56.6484 57.9492 56.7461 57.4805 56.707C57.0508 56.9023 56.6797 56.9219 56.3672 56.7656C56.0547 56.5703 55.7422 56.375 55.4297 56.1797C55 55.9062 54.5898 55.5938 54.1992 55.2422C53.8086 54.8906 53.5742 54.4023 53.4961 53.7773C53.418 52.7617 53.5352 51.8047 53.8477 50.9062C54.1602 50.0078 54.3945 49.1094 54.5508 48.2109C54.5508 48.1328 54.5703 47.9961 54.6094 47.8008C54.6875 47.5664 54.7266 47.332 54.7266 47.0977C54.7656 46.8242 54.7852 46.5898 54.7852 46.3945C54.8242 46.1602 54.8242 46.0039 54.7852 45.9258C54.707 45.8477 54.6484 45.7109 54.6094 45.5156C54.6094 45.3203 54.4531 45.125 54.1406 44.9297C53.9453 44.8125 53.8672 44.793 53.9062 44.8711C53.9453 44.9492 53.7891 44.9883 53.4375 44.9883C53.125 45.1055 52.8516 45.2617 52.6172 45.457C52.3828 45.6523 52.1289 45.8477 51.8555 46.043C51.4648 46.4727 51.0156 46.8633 50.5078 47.2148C50.0391 47.5664 49.6289 47.9766 49.2773 48.4453C48.9648 48.7969 48.6719 49.1484 48.3984 49.5C48.125 49.8516 47.8125 50.2031 47.4609 50.5547C46.9531 51.1406 46.4258 51.7266 45.8789 52.3125C45.332 52.8984 44.7852 53.4648 44.2383 54.0117C43.9648 54.3242 43.7109 54.6367 43.4766 54.9492C43.2422 55.2617 42.9883 55.5742 42.7148 55.8867C42.2461 56.4727 41.7383 57.0391 41.1914 57.5859C40.957 57.9766 40.625 58.3477 40.1953 58.6992C39.7656 59.0508 39.3359 59.3047 38.9062 59.4609C38.7891 59.3828 38.6719 59.3828 38.5547 59.4609C38.3984 59.5391 38.2617 59.5781 38.1445 59.5781C37.6758 59.3828 37.4023 59.2656 37.3242 59.2266C37.2461 59.2266 37.1875 59.1484 37.1484 58.9922C36.7578 58.7578 36.6211 58.3672 36.7383 57.8203C36.8164 57.3125 36.8945 56.8633 36.9727 56.4727C37.3633 54.7148 37.9102 52.9766 38.6133 51.2578C39.2773 49.5 39.8047 47.7812 40.1953 46.1016C40.3906 45.4375 40.5859 44.832 40.7812 44.2852C40.9766 43.6992 41.2109 43.0938 41.4844 42.4688C41.7578 41.9219 41.9336 41.375 42.0117 40.8281C42.1289 40.2422 42.3242 39.6758 42.5977 39.1289C42.7539 38.8555 42.8906 38.5625 43.0078 38.25C43.125 37.9375 43.2422 37.6445 43.3594 37.3711C43.7891 36.5898 44.1992 35.6328 44.5898 34.5C44.9805 33.3281 45.3906 32.293 45.8203 31.3945C46.2891 30.1445 46.7773 28.9336 47.2852 27.7617C47.793 26.5898 48.3594 25.4375 48.9844 24.3047C49.1797 23.5234 49.4141 22.8008 49.6875 22.1367C50 21.4336 50.3711 20.75 50.8008 20.0859C51.1914 19.5781 51.4453 19.168 51.5625 18.8555C51.7188 18.543 51.8945 18.25 52.0898 17.9766C52.5586 17.4297 53.0859 17 53.6719 16.6875C54.2578 16.3359 54.7656 15.8867 55.1953 15.3398C55.5078 15.1836 55.8008 15.0664 56.0742 14.9883C56.3867 14.9102 56.6797 14.8125 56.9531 14.6953C57.0312 14.7734 57.0703 14.8906 57.0703 15.0469C57.1094 15.1641 57.1289 15.2812 57.1289 15.3984C57.207 15.3984 57.2266 15.5156 57.1875 15.75C57.1484 15.9844 57.1484 16.1797 57.1875 16.3359C57.1875 16.9219 57.1289 17.3125 57.0117 17.5078C56.9336 17.7031 56.8555 17.918 56.7773 18.1523C56.7383 18.3867 56.7188 18.6016 56.7188 18.7969C56.7188 18.9531 56.6992 19.1094 56.6602 19.2656C56.543 19.6172 56.4844 19.832 56.4844 19.9102C56.5234 19.9492 56.543 20.0078 56.543 20.0859C56.543 20.2422 56.5234 20.418 56.4844 20.6133C56.4453 20.8086 56.4258 21.0039 56.4258 21.1992C56.3867 21.6289 56.2695 22.0781 56.0742 22.5469C55.918 23.0156 55.7812 23.4453 55.6641 23.8359C55.4297 24.1094 55.293 24.3242 55.2539 24.4805C55.2148 24.6367 55.1367 24.7344 55.0195 24.7734C54.7852 25.4375 54.5703 26.082 54.375 26.707C54.1797 27.332 53.8867 27.918 53.4961 28.4648C53.3398 28.8945 53.125 29.3242 52.8516 29.7539C52.6172 30.1445 52.4023 30.5352 52.207 30.9258C52.1289 31.1211 52.0312 31.3164 51.9141 31.5117C51.8359 31.668 51.7578 31.8438 51.6797 32.0391C51.4062 32.5469 51.1133 33.0742 50.8008 33.6211C50.5273 34.1289 50.1953 34.5977 49.8047 35.0273C49.1016 36.5117 48.3594 38.0156 47.5781 39.5391C46.7969 41.0234 46.0352 42.4688 45.293 43.875C45.0195 44.3047 44.8242 44.6758 44.707 44.9883C44.5898 45.2617 44.5117 45.5156 44.4727 45.75C44.4727 45.9453 44.375 46.1406 44.1797 46.3359C44.0625 46.6875 43.9453 47.0195 43.8281 47.332C43.75 47.6445 43.6133 47.9375 43.418 48.2109C43.2617 49.0312 43.0078 49.7734 42.6562 50.4375C42.3438 51.0625 42.0898 51.7656 41.8945 52.5469ZM85.1953 41.1797C85.2344 41.2969 85.1953 41.5312 85.0781 41.8828C84.8828 42.1172 84.7656 42.3711 84.7266 42.6445C84.6484 42.8008 84.5703 42.9375 84.4922 43.0547C84.4531 43.1719 84.4141 43.3281 84.375 43.5234C84.2969 43.7578 84.2578 44.0312 84.2578 44.3438C84.2969 44.6562 84.2969 44.9492 84.2578 45.2227C84.1797 45.6523 84.1211 46.082 84.082 46.5117C84.043 46.9023 84.0039 47.3125 83.9648 47.7422C83.9648 48.1719 83.9258 48.6602 83.8477 49.207C83.7695 49.7539 83.6914 50.2422 83.6133 50.6719C83.7695 50.9453 83.8672 51.2383 83.9062 51.5508C83.9453 51.8633 84.082 52.1172 84.3164 52.3125C85.0977 52.1953 85.7227 52.0195 86.1914 51.7852C86.6602 51.5117 87.1094 51.1406 87.5391 50.6719C87.8906 50.5156 88.125 50.3789 88.2422 50.2617C88.3984 50.1445 88.6328 49.9883 88.9453 49.793C89.0234 49.7148 89.1016 49.6367 89.1797 49.5586C89.2578 49.4805 89.3359 49.4023 89.4141 49.3242C89.8438 49.0898 90.0977 48.9336 90.1758 48.8555C90.293 48.7773 90.4297 48.6992 90.5859 48.6211C91.25 48.1914 91.7578 47.7422 92.1094 47.2734C92.4609 47 92.6953 46.7656 92.8125 46.5703C92.9688 46.3359 93.2812 46.1211 93.75 45.9258C94.0234 45.6133 94.2969 45.3594 94.5703 45.1641C94.8828 44.9297 95.1758 44.6562 95.4492 44.3438C95.6445 44.3438 95.8008 44.3828 95.918 44.4609C96.0352 44.5391 96.1719 44.6172 96.3281 44.6953C96.4453 45.0078 96.4648 45.3398 96.3867 45.6914C96.3086 46.0039 96.1719 46.2969 95.9766 46.5703C95.7812 46.8438 95.6836 47 95.6836 47.0391C95.6836 47.0781 95.6641 47.1172 95.625 47.1562C95.5078 47.3125 95.3516 47.4688 95.1562 47.625C95 47.7422 94.8633 47.8789 94.7461 48.0352C94.5508 48.3867 94.3945 48.5625 94.2773 48.5625C94.1602 48.5625 94.0625 48.6016 93.9844 48.6797C93.6328 48.875 93.3789 49.0312 93.2227 49.1484C93.1055 49.2656 92.8906 49.4219 92.5781 49.6172C92.1484 49.8516 91.8945 50.0078 91.8164 50.0859C91.7383 50.1641 91.6602 50.2227 91.582 50.2617C91.0742 50.8086 90.6055 51.2578 90.1758 51.6094C89.7852 51.9219 89.3555 52.3516 88.8867 52.8984C88.7305 53.0156 88.5742 53.1328 88.418 53.25C88.2617 53.3672 88.125 53.5234 88.0078 53.7188C87.6562 53.9531 87.3633 54.1875 87.1289 54.4219C86.9336 54.6562 86.6992 54.9297 86.4258 55.2422C86.1914 55.3594 85.9375 55.5352 85.6641 55.7695C85.3906 55.9648 85.0977 56.1406 84.7852 56.2969C84.6289 56.375 84.4531 56.4727 84.2578 56.5898C84.1016 56.668 83.9258 56.707 83.7305 56.707C83.2617 56.7852 82.832 56.7461 82.4414 56.5898C82.0508 56.4336 81.6797 56.3164 81.3281 56.2383C81.1719 56.0039 80.9766 55.8086 80.7422 55.6523C80.3906 55.2227 80.1367 54.7148 79.9805 54.1289C79.8242 53.543 79.668 52.918 79.5117 52.2539C79.1992 52.4492 78.9062 52.7031 78.6328 53.0156C78.3594 53.3281 78.0078 53.582 77.5781 53.7773C76.7969 54.5195 75.957 55.2422 75.0586 55.9453C74.1992 56.6094 73.3203 57.3125 72.4219 58.0547C72.3047 58.1719 72.1875 58.2695 72.0703 58.3477C71.9531 58.4258 71.8555 58.4453 71.7773 58.4062C71.582 58.6406 71.3086 58.7773 70.957 58.8164C70.6445 58.8945 70.293 58.8945 69.9023 58.8164C69.5117 58.6211 69.1602 58.4844 68.8477 58.4062C68.5352 58.3281 68.2227 58.2109 67.9102 58.0547C67.2461 57.9375 66.6992 57.6445 66.2695 57.1758C65.8008 56.707 65.4102 56.1602 65.0977 55.5352C64.9805 55.2227 64.9023 54.9297 64.8633 54.6562C64.7852 54.3828 64.707 54.0703 64.6289 53.7188C64.5898 53.4062 64.5312 53.1523 64.4531 52.957C64.375 52.7227 64.375 52.5078 64.4531 52.3125C64.375 52.1953 64.3555 52.0781 64.3945 51.9609C64.4336 51.8047 64.4531 51.6484 64.4531 51.4922C64.4141 50.9453 64.4727 50.3594 64.6289 49.7344C64.7461 49.1094 64.9219 48.543 65.1562 48.0352C65.2344 47.8789 65.3906 47.6836 65.625 47.4492C65.7031 47.332 65.7617 47.2148 65.8008 47.0977C65.8398 46.9805 65.8984 46.8828 65.9766 46.8047C66.0547 46.6875 66.1719 46.5703 66.3281 46.4531C66.4844 46.3359 66.6211 46.2188 66.7383 46.1016C66.9336 45.8281 67.1484 45.5938 67.3828 45.3984C67.6562 45.1641 67.9102 44.9297 68.1445 44.6953C68.2617 44.5781 68.3594 44.4414 68.4375 44.2852C68.5547 44.1289 68.7109 44.0117 68.9062 43.9336C69.0625 43.6602 69.2383 43.4453 69.4336 43.2891C69.6289 43.0938 69.8438 42.8984 70.0781 42.7031C70.7422 41.8828 71.5625 41.1992 72.5391 40.6523C73.5156 40.1055 74.3945 39.4805 75.1758 38.7773C75.4492 38.6602 75.6836 38.5234 75.8789 38.3672C76.0742 38.2109 76.2695 38.0547 76.4648 37.8984C76.9727 37.4688 77.5 37.332 78.0469 37.4883C78.5938 37.6445 79.1016 37.7812 79.5703 37.8984C79.9609 38.25 80.332 38.6016 80.6836 38.9531C81.0742 39.3047 81.4062 39.6953 81.6797 40.125C81.9531 40.0859 82.2656 40.0859 82.6172 40.125C82.9688 40.125 83.3398 40.0859 83.7305 40.0078C83.8477 40.0078 83.9648 39.9883 84.082 39.9492C84.1992 39.8711 84.2969 39.832 84.375 39.832C84.9609 40.0273 85.2539 40.3203 85.2539 40.7109L85.1953 41.1797ZM77.5195 41.5898C76.4648 42.0977 75.5078 42.7031 74.6484 43.4062C73.7891 44.0703 72.9688 44.793 72.1875 45.5742C71.9922 45.7695 71.7773 45.9648 71.543 46.1602C71.3477 46.3164 71.1719 46.4922 71.0156 46.6875C70.8594 46.8828 70.7031 47.1172 70.5469 47.3906C70.4297 47.6641 70.3125 47.918 70.1953 48.1523C70.1172 48.3086 70.0391 48.4453 69.9609 48.5625C69.8828 48.6406 69.8047 48.7383 69.7266 48.8555C69.6484 49.0508 69.6094 49.2461 69.6094 49.4414C69.6484 49.6367 69.668 49.8516 69.668 50.0859C69.668 50.2812 69.668 50.4766 69.668 50.6719C69.668 50.8672 69.6875 51.0625 69.7266 51.2578C69.8438 51.6875 69.9023 52.1172 69.9023 52.5469C69.9023 52.8594 69.9219 53.25 69.9609 53.7188C70.0391 54.1484 70.1953 54.4414 70.4297 54.5977C70.6641 54.7539 70.8984 54.793 71.1328 54.7148C71.4062 54.6367 71.6406 54.5781 71.8359 54.5391C73.2031 53.4844 74.4922 52.3906 75.7031 51.2578C76.9141 50.0859 77.9883 48.7773 78.9258 47.332C78.8477 46.3164 78.8281 45.3398 78.8672 44.4023C78.9453 43.4258 78.8672 42.5273 78.6328 41.707C78.4766 41.6289 78.2812 41.6094 78.0469 41.6484C77.8516 41.6484 77.6758 41.6289 77.5195 41.5898Z" fill="#F9D34C"/>
<path d="M90.2187 59L9.21875 70" stroke="#F9D34C" stroke-linecap="round"/>
<circle cx="3.71875" cy="70.5" r="1.5" fill="#F9D34C"/>
</svg>
