<svg width="26" height="26" viewBox="0 0 26 26" fill="none" xmlns="http://www.w3.org/2000/svg">
<path d="M13 1.625C6.71836 1.625 1.625 6.71836 1.625 13C1.625 19.2816 6.71836 24.375 13 24.375C19.2816 24.375 24.375 19.2816 24.375 13C24.375 6.71836 19.2816 1.625 13 1.625ZM13 22.4453C7.78477 22.4453 3.55469 18.2152 3.55469 13C3.55469 7.78477 7.78477 3.55469 13 3.55469C18.2152 3.55469 22.4453 7.78477 22.4453 13C22.4453 18.2152 18.2152 22.4453 13 22.4453Z" fill="black"/>
<path d="M13 3.55469C7.78477 3.55469 3.55469 7.78477 3.55469 13C3.55469 18.2152 7.78477 22.4453 13 22.4453C18.2152 22.4453 22.4453 18.2152 22.4453 13C22.4453 7.78477 18.2152 3.55469 13 3.55469ZM7.3125 10.6895C7.31901 10.3705 7.45027 10.0669 7.67813 9.84361C7.90598 9.62037 8.21226 9.49533 8.53125 9.49533C8.85024 9.49533 9.15652 9.62037 9.38437 9.84361C9.61223 10.0669 9.74349 10.3705 9.75 10.6895C9.74349 11.0084 9.61223 11.312 9.38437 11.5353C9.15652 11.7585 8.85024 11.8836 8.53125 11.8836C8.21226 11.8836 7.90598 11.7585 7.67813 11.5353C7.45027 11.312 7.31901 11.0084 7.3125 10.6895ZM13 17.5957C10.8291 17.5957 9.04922 15.8869 8.9375 13.7465C8.93612 13.719 8.94036 13.6915 8.94995 13.6656C8.95954 13.6398 8.97428 13.6162 8.99328 13.5962C9.01228 13.5763 9.03514 13.5604 9.06047 13.5496C9.0858 13.5387 9.11307 13.5332 9.14062 13.5332H10.3619C10.4686 13.5332 10.56 13.6145 10.5676 13.7211C10.6641 14.9779 11.7178 15.9707 13 15.9707C14.2822 15.9707 15.3385 14.9779 15.4324 13.7211C15.44 13.6145 15.5314 13.5332 15.6381 13.5332H16.8594C16.8869 13.5332 16.9142 13.5387 16.9395 13.5496C16.9649 13.5604 16.9877 13.5763 17.0067 13.5962C17.0257 13.6162 17.0405 13.6398 17.0501 13.6656C17.0596 13.6915 17.0639 13.719 17.0625 13.7465C16.9508 15.8869 15.1709 17.5957 13 17.5957ZM17.4688 11.9082C17.1498 11.9017 16.8462 11.7704 16.6229 11.5426C16.3997 11.3147 16.2746 11.0084 16.2746 10.6895C16.2746 10.3705 16.3997 10.0642 16.6229 9.83633C16.8462 9.60848 17.1498 9.47721 17.4688 9.4707C17.7877 9.47721 18.0913 9.60848 18.3146 9.83633C18.5378 10.0642 18.6629 10.3705 18.6629 10.6895C18.6629 11.0084 18.5378 11.3147 18.3146 11.5426C18.0913 11.7704 17.7877 11.9017 17.4688 11.9082Z" fill="black" fill-opacity="0.15"/>
<path d="M7.3125 10.6895C7.3125 11.0127 7.4409 11.3227 7.66946 11.5512C7.89802 11.7798 8.20802 11.9082 8.53125 11.9082C8.85448 11.9082 9.16448 11.7798 9.39304 11.5512C9.6216 11.3227 9.75 11.0127 9.75 10.6895C9.75 10.3662 9.6216 10.0562 9.39304 9.82767C9.16448 9.59911 8.85448 9.4707 8.53125 9.4707C8.20802 9.4707 7.89802 9.59911 7.66946 9.82767C7.4409 10.0562 7.3125 10.3662 7.3125 10.6895ZM16.8594 13.5332H15.6381C15.5314 13.5332 15.44 13.6145 15.4324 13.7211C15.3385 14.9779 14.2822 15.9707 13 15.9707C11.7178 15.9707 10.6641 14.9779 10.5676 13.7211C10.56 13.6145 10.4686 13.5332 10.3619 13.5332H9.14062C9.11307 13.5332 9.0858 13.5387 9.06047 13.5496C9.03514 13.5604 9.01228 13.5763 8.99328 13.5962C8.97428 13.6162 8.95954 13.6398 8.94995 13.6656C8.94036 13.6915 8.93612 13.719 8.9375 13.7465C9.04922 15.8869 10.8291 17.5957 13 17.5957C15.1709 17.5957 16.9508 15.8869 17.0625 13.7465C17.0639 13.719 17.0596 13.6915 17.0501 13.6656C17.0405 13.6398 17.0257 13.6162 17.0067 13.5962C16.9877 13.5763 16.9649 13.5604 16.9395 13.5496C16.9142 13.5387 16.8869 13.5332 16.8594 13.5332ZM16.25 10.6895C16.25 11.0127 16.3784 11.3227 16.607 11.5512C16.8355 11.7798 17.1455 11.9082 17.4688 11.9082C17.792 11.9082 18.102 11.7798 18.3305 11.5512C18.5591 11.3227 18.6875 11.0127 18.6875 10.6895C18.6875 10.3662 18.5591 10.0562 18.3305 9.82767C18.102 9.59911 17.792 9.4707 17.4688 9.4707C17.1455 9.4707 16.8355 9.59911 16.607 9.82767C16.3784 10.0562 16.25 10.3662 16.25 10.6895Z" fill="black"/>
</svg>
